# xmcd
#
# Track frame offsets: 
#        150
#        17812
#        37275
#        52387
#        67650
#        85310
#        99597
#        119697
#        134810
#        152247
#
# Disc length: 2280 seconds
#
# Revision: 0
# Processed by: cddbd v1.5.2PL0 Copyright (c) Steve Scherf et al.
# Submitted via: ExactAudioCopy v1.0b6
#
DISCID=9608e60a
DTITLE=Maranatha! Music - Praise Classics - Lord of Lords (1995)
DYEAR=1995
DGENRE=Praise and Worship
TTITLE0=Tommy Funderburk - He Has Made Me Glad
TTITLE1=Vangie Archer - Softly and Tenderly
TTITLE2=Oren Waters - Beautiful
TTITLE3=Leonard Tucker - Be Thou My Vision
TTITLE4=Anne Barbour - We Will Glorify
TTITLE5=Tommy Funderburk - How Majestic Is Your Name
TTITLE6=Leonard Tucker - I Need You
TTITLE7=Vangie Archer - White As Snow [feat. Oren Waters]
TTITLE8=Susie Stevens - Come Just As You Are
TTITLE9=John and Anne Barbour - Come Lets Us Worship And Bow Down
EXTD=
EXTT0=
EXTT1=
EXTT2=
EXTT3=
EXTT4=
EXTT5=
EXTT6=
EXTT7=
EXTT8=
EXTT9=
PLAYORDER=
